1o1.ufo
<glyph name="comma" format="2">
  <advance width="294"/>
  <unicode hex="002C"/>
  <outline>
    <contour>
      <point x="146" y="204" type="curve" smooth="yes"/>
      <point x="204" y="204"/>
      <point x="254" y="157"/>
      <point x="254" y="80" type="curve" smooth="yes"/>
      <point x="254" y="-5.09277"/>
      <point x="183.933" y="-85.1211"/>
      <point x="95.9443" y="-105.946" type="curve" smooth="yes"/>
      <point x="83.2939" y="-108.94"/>
      <point x="63.1406" y="-110.628"/>
      <point x="63.1406" y="-110.628" type="curve"/>
      <point x="59.4561" y="-95.0576" type="line"/>
      <point x="125.039" y="-79.5371"/>
      <point x="142" y="-40.8154"/>
      <point x="142" y="-18" type="curve" smooth="yes"/>
      <point x="142" y="-7.92773"/>
      <point x="136.806" y="-0.707031"/>
      <point x="136.806" y="-0.707031" type="curve"/>
      <point x="98" y="0"/>
      <point x="40" y="33.2188"/>
      <point x="40" y="97" type="curve" smooth="yes"/>
      <point x="40" y="154"/>
      <point x="82.9688" y="204"/>
    </contour>
  </outline>
</glyph>
<glyph name="period" format="2">
  <advance width="292"/>
  <unicode hex="002E"/>
  <outline>
    <contour>
      <point x="40" y="98" type="curve" smooth="yes"/>
      <point x="40" y="157"/>
      <point x="87" y="204"/>
      <point x="146" y="204" type="curve" smooth="yes"/>
      <point x="205" y="204"/>
      <point x="252" y="157"/>
      <point x="252" y="98" type="curve" smooth="yes"/>
      <point x="252" y="39"/>
      <point x="205" y="-8"/>
      <point x="146" y="-8" type="curve" smooth="yes"/>
      <point x="87" y="-8"/>
      <point x="40" y="39"/>
    </contour>
  </outline>
</glyph>
<glyph name="zero" format="2">
  <advance width="688"/>
  <unicode hex="0030"/>
  <outline>
    <contour>
      <point x="618" y="353" type="curve" smooth="yes"/>
      <point x="618" y="127"/>
      <point x="457" y="0"/>
      <point x="370" y="0" type="curve"/>
      <point x="370" y="17" type="line"/>
      <point x="401" y="32"/>
      <point x="415" y="53"/>
      <point x="415" y="99" type="curve" smooth="yes"/>
      <point x="415" y="616" type="line" smooth="yes"/>
      <point x="415" y="662"/>
      <point x="406" y="688"/>
      <point x="366" y="701" type="curve"/>
      <point x="366" y="718" type="line"/>
      <point x="440" y="718"/>
      <point x="618" y="628"/>
    </contour>
    <contour>
      <point x="70" y="370" type="curve" smooth="yes"/>
      <point x="70" y="584"/>
      <point x="209" y="708"/>
      <point x="314" y="719" type="curve" smooth="yes"/>
      <point x="314" y="701" type="line"/>
      <point x="281" y="688"/>
      <point x="271" y="666"/>
      <point x="270" y="620" type="curve" smooth="yes"/>
      <point x="270" y="98" type="line" smooth="yes"/>
      <point x="271" y="52"/>
      <point x="279" y="30"/>
      <point x="319" y="17" type="curve"/>
      <point x="319" y="0" type="line"/>
      <point x="226" y="0"/>
      <point x="70" y="95"/>
    </contour>
  </outline>
</glyph>
<glyph name="one" format="2">
	<unicode hex="0031"/>
	<advance width="479"/>
	<outline>
		<contour>
			<point x="100" y="645" type="line"/>
			<point x="104" y="642" type="line"/>
			<point x="104" y="606" type="line"/>
			<point x="49" y="506" type="line"/>
			<point x="30" y="517" type="line"/>
		</contour>
		<contour>
			<point x="150" y="725" type="line"/>
			<point x="349" y="725" type="line"/>
			<point x="349" y="23" type="line"/>
			<point x="434" y="23" type="line"/>
			<point x="434" y="0" type="line"/>
			<point x="64" y="0" type="line"/>
			<point x="64" y="23" type="line"/>
			<point x="150" y="23" type="line"/>
		</contour>
	</outline>
</glyph>
<glyph name="two" format="2">
	<unicode hex="0032"/>
	<advance width="674"/>
	<outline>
		<contour>
			<point x="267" y="720" type="curve" smooth="yes"/>
			<point x="268" y="702" type="line" smooth="yes"/>
			<point x="233" y="694"/>
			<point x="232" y="643"/>
			<point x="232" y="626" type="curve" smooth="yes"/>
			<point x="232" y="509"/>
			<point x="236" y="394"/>
			<point x="300" y="394" type="curve" smooth="yes"/>
			<point x="307" y="394"/>
			<point x="315" y="396"/>
			<point x="324" y="399" type="curve" smooth="yes"/>
			<point x="329" y="386" type="line" smooth="yes"/>
			<point x="294" y="374"/>
			<point x="274" y="366"/>
			<point x="232" y="366" type="curve" smooth="yes"/>
			<point x="171" y="366"/>
			<point x="56" y="397"/>
			<point x="56" y="542" type="curve" smooth="yes"/>
			<point x="56" y="595"/>
			<point x="117" y="710"/>
		</contour>
		<contour>
			<point x="315" y="720" type="line" smooth="yes"/>
			<point x="525" y="720"/>
			<point x="594" y="591"/>
			<point x="594" y="511" type="curve"/>
			<point x="594" y="379"/>
			<point x="471" y="334"/>
			<point x="350" y="235" type="curve"/>
			<point x="331" y="235" type="line"/>
			<point x="383" y="308"/>
			<point x="388" y="373"/>
			<point x="388" y="546" type="curve" smooth="yes"/>
			<point x="388" y="652"/>
			<point x="369" y="702"/>
			<point x="315" y="702" type="curve"/>
		</contour>
		<contour>
			<point x="578" y="266" type="line"/>
			<point x="578" y="0" type="line"/>
			<point x="403" y="0"/>
			<point x="227" y="0"/>
			<point x="52" y="0" type="curve"/>
			<point x="50" y="10" type="line"/>
			<point x="299" y="209" type="line"/>
			<point x="558" y="209" type="line"/>
			<point x="558" y="266" type="line"/>
		</contour>
	</outline>
</glyph>
<glyph name="three" format="2">
  <advance width="681"/>
  <unicode hex="0033"/>
  <outline>
    <contour>
      <point x="168" y="293" type="curve" smooth="yes"/>
      <point x="226" y="293"/>
      <point x="272" y="243"/>
      <point x="272" y="185" type="curve" smooth="yes"/>
      <point x="272" y="128"/>
      <point x="208" y="93"/>
      <point x="196" y="93" type="curve"/>
      <point x="196" y="93"/>
      <point x="194" y="90"/>
      <point x="194" y="85" type="curve"/>
      <point x="194" y="65"/>
      <point x="216" y="19"/>
      <point x="293" y="19" type="curve"/>
      <point x="293" y="3" type="line"/>
      <point x="293" y="3"/>
      <point x="273" y="0"/>
      <point x="260" y="0" type="curve" smooth="yes"/>
      <point x="157" y="0"/>
      <point x="60" y="70"/>
      <point x="60" y="173" type="curve" smooth="yes"/>
      <point x="60" y="236"/>
      <point x="105" y="293"/>
    </contour>
    <contour>
      <point x="360" y="389" type="line"/>
      <point x="360" y="389"/>
      <point x="392" y="394"/>
      <point x="413" y="394" type="curve" smooth="yes"/>
      <point x="519" y="394"/>
      <point x="611" y="315"/>
      <point x="611" y="209" type="curve" smooth="yes"/>
      <point x="611" y="75"/>
      <point x="479" y="-3"/>
      <point x="368" y="-3" type="curve" smooth="yes"/>
      <point x="356" y="-3"/>
      <point x="338" y="0"/>
      <point x="338" y="0" type="curve"/>
      <point x="338" y="18" type="line" smooth="yes"/>
      <point x="377" y="18"/>
      <point x="413" y="18"/>
      <point x="413" y="231" type="curve" smooth="yes"/>
      <point x="413" y="312"/>
      <point x="412" y="371"/>
      <point x="370" y="371" type="curve" smooth="yes"/>
      <point x="363" y="371"/>
      <point x="352" y="368"/>
      <point x="352" y="368" type="curve"/>
      <point x="351" y="373" type="line"/>
    </contour>
    <contour>
      <point x="396" y="493" type="line"/>
      <point x="421" y="493" type="line"/>
      <point x="296" y="341" type="line"/>
      <point x="281" y="355" type="line"/>
    </contour>
    <contour>
      <point x="118" y="718" type="line"/>
      <point x="610" y="718" type="line"/>
      <point x="452" y="524" type="line"/>
      <point x="138" y="524" type="line"/>
      <point x="138" y="466" type="line"/>
      <point x="118" y="466" type="line"/>
    </contour>
  </outline>
</glyph>
<glyph name="four" format="2">
  <advance width="723"/>
  <unicode hex="0034"/>
  <outline>
    <contour>
      <point x="301" y="372" type="line"/>
      <point x="301" y="181" type="line"/>
      <point x="60" y="181" type="line"/>
      <point x="161" y="372" type="line"/>
    </contour>
    <contour>
      <point x="182" y="415" type="line"/>
      <point x="302" y="643" type="line"/>
      <point x="305" y="642" type="line"/>
      <point x="308" y="615" type="line"/>
      <point x="203" y="415" type="line"/>
    </contour>
    <contour>
      <point x="334" y="725" type="line"/>
      <point x="539" y="725" type="line"/>
      <point x="539" y="372" type="line"/>
      <point x="621" y="372" type="line"/>
      <point x="621" y="454" type="line"/>
      <point x="643" y="454" type="line"/>
      <point x="643" y="181" type="line"/>
      <point x="539" y="181" type="line"/>
      <point x="539" y="23" type="line"/>
      <point x="607" y="23" type="line"/>
      <point x="607" y="0" type="line"/>
      <point x="250" y="0" type="line"/>
      <point x="250" y="23" type="line"/>
      <point x="334" y="23" type="line"/>
    </contour>
  </outline>
</glyph>
<glyph name="five" format="2">
  <advance width="679"/>
  <unicode hex="0035"/>
  <outline>
    <contour>
      <point x="168" y="289" type="curve" smooth="yes"/>
      <point x="226" y="289"/>
      <point x="276" y="239"/>
      <point x="276" y="181" type="curve" smooth="yes"/>
      <point x="276" y="124"/>
      <point x="225" y="98"/>
      <point x="201" y="89" type="curve"/>
      <point x="201" y="89"/>
      <point x="199" y="87"/>
      <point x="199" y="86" type="curve" smooth="yes"/>
      <point x="199" y="76"/>
      <point x="207" y="49"/>
      <point x="231" y="33" type="curve" smooth="yes"/>
      <point x="247" y="22"/>
      <point x="272" y="17"/>
      <point x="305" y="17" type="curve" smooth="yes"/>
      <point x="306" y="-1" type="line"/>
      <point x="306" y="-1"/>
      <point x="273" y="-3"/>
      <point x="260" y="-3" type="curve" smooth="yes"/>
      <point x="157" y="-3"/>
      <point x="60" y="66"/>
      <point x="60" y="169" type="curve" smooth="yes"/>
      <point x="60" y="232"/>
      <point x="105" y="289"/>
    </contour>
    <contour>
      <point x="249" y="391" type="curve"/>
      <point x="272" y="404"/>
      <point x="314" y="427"/>
      <point x="391" y="427" type="curve" smooth="yes"/>
      <point x="510" y="427"/>
      <point x="619" y="337"/>
      <point x="619" y="215" type="curve" smooth="yes"/>
      <point x="619" y="89"/>
      <point x="497" y="6"/>
      <point x="351" y="-3" type="curve" smooth="yes"/>
      <point x="350" y="15" type="line"/>
      <point x="413" y="25"/>
      <point x="417" y="63"/>
      <point x="417" y="253" type="curve" smooth="yes"/>
      <point x="417" y="343"/>
      <point x="415" y="403"/>
      <point x="346" y="403" type="curve" smooth="yes"/>
      <point x="308" y="403"/>
      <point x="265" y="380"/>
      <point x="253" y="372" type="curve"/>
      <point x="249" y="372"/>
      <point x="248" y="378"/>
      <point x="248" y="383" type="curve" smooth="yes"/>
      <point x="248" y="388"/>
      <point x="249" y="391"/>
    </contour>
    <contour>
      <point x="313" y="673" type="curve"/>
      <point x="330" y="627"/>
      <point x="360" y="595"/>
      <point x="393" y="595" type="curve" smooth="yes"/>
      <point x="406" y="595"/>
      <point x="424" y="597"/>
      <point x="424" y="608" type="curve" smooth="yes"/>
      <point x="424" y="617"/>
      <point x="389" y="630"/>
      <point x="389" y="663" type="curve" smooth="yes"/>
      <point x="389" y="697"/>
      <point x="413" y="724"/>
      <point x="451" y="724" type="curve" smooth="yes"/>
      <point x="496" y="724"/>
      <point x="533" y="687"/>
      <point x="533" y="642" type="curve" smooth="yes"/>
      <point x="533" y="589"/>
      <point x="490" y="546"/>
      <point x="437" y="546" type="curve" smooth="yes"/>
      <point x="367" y="546"/>
      <point x="313" y="615"/>
      <point x="304" y="654" type="curve"/>
      <point x="304" y="662"/>
      <point x="313" y="673"/>
    </contour>
    <contour>
      <point x="204" y="684" type="curve" smooth="yes"/>
      <point x="264" y="684"/>
      <point x="276" y="718"/>
      <point x="286" y="718" type="curve" smooth="yes"/>
      <point x="292" y="718"/>
      <point x="295" y="714"/>
      <point x="295" y="714" type="curve" smooth="yes"/>
      <point x="295" y="695"/>
      <point x="246" y="516"/>
      <point x="215" y="360" type="curve"/>
      <point x="196" y="360" type="line"/>
      <point x="167" y="484"/>
      <point x="113" y="693"/>
      <point x="113" y="713" type="curve" smooth="yes"/>
      <point x="113" y="713"/>
      <point x="115" y="717"/>
      <point x="121" y="717" type="curve" smooth="yes"/>
      <point x="131" y="717"/>
      <point x="144" y="684"/>
    </contour>
  </outline>
</glyph>
<glyph name="six" format="2">
  <advance width="682"/>
  <unicode hex="0036"/>
  <outline>
    <contour>
      <point x="368" y="717" type="line"/>
      <point x="368" y="717"/>
      <point x="383" y="720"/>
      <point x="394" y="720" type="curve" smooth="yes"/>
      <point x="476" y="720"/>
      <point x="551" y="663"/>
      <point x="551" y="593" type="curve" smooth="yes"/>
      <point x="551" y="537"/>
      <point x="514" y="497"/>
      <point x="462" y="497" type="curve" smooth="yes"/>
      <point x="413" y="497"/>
      <point x="374" y="540"/>
      <point x="374" y="585" type="curve" smooth="yes"/>
      <point x="374" y="636"/>
      <point x="422" y="657"/>
      <point x="422" y="657" type="curve"/>
      <point x="422" y="696"/>
      <point x="369" y="703"/>
      <point x="369" y="703" type="curve"/>
    </contour>
    <contour>
      <point x="321" y="-3" type="curve" smooth="yes"/>
      <point x="164" y="8"/>
      <point x="70" y="163"/>
      <point x="70" y="347" type="curve" smooth="yes"/>
      <point x="70" y="496"/>
      <point x="181" y="693"/>
      <point x="332" y="720" type="curve" smooth="yes"/>
      <point x="334" y="704" type="line" smooth="yes"/>
      <point x="277" y="685"/>
      <point x="276" y="601"/>
      <point x="276" y="552" type="curve" smooth="yes"/>
      <point x="276" y="276"/>
      <point x="276" y="129"/>
      <point x="280" y="91" type="curve" smooth="yes"/>
      <point x="285" y="48"/>
      <point x="301" y="20"/>
      <point x="325" y="14" type="curve"/>
      <point x="325" y="3"/>
      <point x="321" y="-3"/>
    </contour>
    <contour>
      <point x="346" y="359" type="line" smooth="yes"/>
      <point x="364" y="371"/>
      <point x="398" y="387"/>
      <point x="434" y="387" type="curve" smooth="yes"/>
      <point x="536" y="387"/>
      <point x="612" y="301"/>
      <point x="612" y="199" type="curve" smooth="yes"/>
      <point x="612" y="76"/>
      <point x="510" y="-3"/>
      <point x="371" y="-3" type="curve" smooth="yes"/>
      <point x="369" y="13" type="line" smooth="yes"/>
      <point x="420" y="19"/>
      <point x="420" y="69"/>
      <point x="420" y="197" type="curve" smooth="yes"/>
      <point x="420" y="335"/>
      <point x="419" y="359"/>
      <point x="387" y="359" type="curve" smooth="yes"/>
      <point x="372" y="359"/>
      <point x="351" y="347"/>
      <point x="351" y="347" type="curve"/>
    </contour>
  </outline>
</glyph>
<glyph name="seven" format="2">
  <advance width="589"/>
  <unicode hex="0037"/>
  <outline>
    <contour>
      <point x="473" y="472" type="curve"/>
      <point x="409" y="338"/>
      <point x="340" y="166"/>
      <point x="340" y="104" type="curve" smooth="yes"/>
      <point x="340" y="52"/>
      <point x="361" y="20"/>
      <point x="441" y="20" type="curve" smooth="yes"/>
      <point x="441" y="20"/>
      <point x="441" y="7"/>
      <point x="441" y="0" type="curve"/>
      <point x="65" y="0" type="line"/>
      <point x="65" y="20" type="line" smooth="yes"/>
      <point x="249" y="20"/>
      <point x="339" y="263"/>
      <point x="451" y="479" type="curve" smooth="yes"/>
      <point x="451" y="479"/>
      <point x="464" y="475"/>
    </contour>
    <contour>
      <point x="74" y="722" type="line"/>
      <point x="604" y="722" type="line"/>
      <point x="504" y="528" type="line"/>
      <point x="94" y="528" type="line"/>
      <point x="94" y="472" type="line"/>
      <point x="74" y="472" type="line"/>
    </contour>
  </outline>
</glyph>
<glyph name="eight" format="2">
  <advance width="671"/>
  <unicode hex="0038"/>
  <outline>
    <contour>
      <point x="359" y="-3" type="curve" smooth="yes"/>
      <point x="357" y="16" type="line" smooth="yes"/>
      <point x="402" y="23"/>
      <point x="421" y="46"/>
      <point x="421" y="156" type="curve" smooth="yes"/>
      <point x="421" y="349"/>
      <point x="415" y="367"/>
      <point x="342" y="389" type="curve" smooth="yes"/>
      <point x="350" y="409" type="line"/>
      <point x="350" y="409"/>
      <point x="364" y="402"/>
      <point x="387" y="399" type="curve" smooth="yes"/>
      <point x="473" y="388"/>
      <point x="611" y="326"/>
      <point x="611" y="203" type="curve" smooth="yes"/>
      <point x="611" y="65"/>
      <point x="436" y="-3"/>
    </contour>
    <contour>
      <point x="313" y="721" type="curve" smooth="yes"/>
      <point x="314" y="702" type="line" smooth="yes"/>
      <point x="279" y="702"/>
      <point x="275" y="652"/>
      <point x="275" y="587" type="curve" smooth="yes"/>
      <point x="275" y="456"/>
      <point x="278" y="441"/>
      <point x="319" y="420" type="curve" smooth="yes"/>
      <point x="314" y="401" type="line"/>
      <point x="314" y="401"/>
      <point x="109" y="439"/>
      <point x="109" y="582" type="curve" smooth="yes"/>
      <point x="109" y="645"/>
      <point x="183" y="721"/>
    </contour>
    <contour>
      <point x="309" y="-3" type="line"/>
      <point x="147" y="13"/>
      <point x="60" y="117"/>
      <point x="60" y="205" type="curve" smooth="yes"/>
      <point x="60" y="330"/>
      <point x="202" y="381"/>
      <point x="255" y="381" type="curve" smooth="yes"/>
      <point x="271" y="381"/>
      <point x="288" y="378"/>
      <point x="288" y="378" type="curve"/>
      <point x="263" y="344"/>
      <point x="262" y="315"/>
      <point x="262" y="104" type="curve" smooth="yes"/>
      <point x="262" y="25"/>
      <point x="287" y="23"/>
      <point x="310" y="18" type="curve" smooth="yes"/>
    </contour>
    <contour>
      <point x="352" y="719" type="line" smooth="yes"/>
      <point x="389" y="719"/>
      <point x="420" y="716"/>
      <point x="445" y="708" type="curve" smooth="yes"/>
      <point x="532" y="681"/>
      <point x="555" y="602"/>
      <point x="555" y="571" type="curve" smooth="yes"/>
      <point x="555" y="450"/>
      <point x="439" y="426"/>
      <point x="396" y="426" type="curve" smooth="yes"/>
      <point x="383" y="426"/>
      <point x="374" y="426"/>
      <point x="372" y="429" type="curve"/>
      <point x="375" y="439"/>
      <point x="386" y="471"/>
      <point x="386" y="499" type="curve" smooth="yes"/>
      <point x="386" y="565"/>
      <point x="385" y="610"/>
      <point x="383" y="641" type="curve" smooth="yes"/>
      <point x="380" y="683"/>
      <point x="371" y="696"/>
      <point x="352" y="700" type="curve" smooth="yes"/>
    </contour>
  </outline>
</glyph>
<glyph name="nine" format="2">
	<unicode hex="0039"/>
	<advance width="657"/>
	<outline>
		<contour>
			<point x="299" y="723" type="curve" smooth="yes"/>
			<point x="300" y="707" type="line" smooth="yes"/>
			<point x="265" y="699"/>
			<point x="250" y="669"/>
			<point x="250" y="585" type="curve" smooth="yes"/>
			<point x="250" y="371"/>
			<point x="256" y="358"/>
			<point x="285" y="358" type="curve" smooth="yes"/>
			<point x="299" y="358"/>
			<point x="323" y="373"/>
			<point x="323" y="373" type="curve" smooth="yes"/>
			<point x="330" y="357" type="line" smooth="yes"/>
			<point x="330" y="357"/>
			<point x="293" y="331"/>
			<point x="246" y="331" type="curve" smooth="yes"/>
			<point x="140" y="331"/>
			<point x="60" y="421"/>
			<point x="60" y="511" type="curve" smooth="yes"/>
			<point x="60" y="633"/>
			<point x="156" y="723"/>
		</contour>
		<contour>
			<point x="199" y="217" type="curve" smooth="yes"/>
			<point x="243" y="217"/>
			<point x="279" y="181"/>
			<point x="279" y="135" type="curve" smooth="yes"/>
			<point x="279" y="92"/>
			<point x="254" y="71"/>
			<point x="236" y="64" type="curve"/>
			<point x="236" y="64"/>
			<point x="234" y="63"/>
			<point x="234" y="60" type="curve" smooth="yes"/>
			<point x="234" y="52"/>
			<point x="238" y="40"/>
			<point x="255" y="26" type="curve" smooth="yes"/>
			<point x="269" y="15"/>
			<point x="294" y="14"/>
			<point x="294" y="14" type="curve" smooth="yes"/>
			<point x="292" y="-4" type="line" smooth="yes"/>
			<point x="148" y="-4"/>
			<point x="108" y="76"/>
			<point x="108" y="129" type="curve" smooth="yes"/>
			<point x="108" y="177"/>
			<point x="151" y="217"/>
		</contour>
		<contour>
			<point x="597" y="384" type="curve" smooth="yes"/>
			<point x="597" y="129"/>
			<point x="390" y="-3"/>
			<point x="330" y="-3" type="curve"/>
			<point x="327" y="15" type="line"/>
			<point x="384" y="29"/>
			<point x="394" y="55"/>
			<point x="394" y="385" type="curve" smooth="yes"/>
			<point x="394" y="614"/>
			<point x="392" y="689"/>
			<point x="348" y="701" type="curve"/>
			<point x="350" y="721" type="line" smooth="yes"/>
			<point x="501" y="721"/>
			<point x="597" y="554"/>
		</contour>
	</outline>
</glyph>
<glyph name="eight.tnum" format="2">
	<advance width="640"/>
	<outline>
		<contour>
			<point x="344" y="-3" type="curve" smooth="yes"/>
			<point x="342" y="16" type="line" smooth="yes"/>
			<point x="387" y="23"/>
			<point x="406" y="46"/>
			<point x="406" y="156" type="curve" smooth="yes"/>
			<point x="406" y="349"/>
			<point x="400" y="367"/>
			<point x="327" y="389" type="curve" smooth="yes"/>
			<point x="335" y="409" type="line"/>
			<point x="335" y="409"/>
			<point x="349" y="402"/>
			<point x="372" y="399" type="curve" smooth="yes"/>
			<point x="458" y="388"/>
			<point x="596" y="326"/>
			<point x="596" y="203" type="curve" smooth="yes"/>
			<point x="596" y="65"/>
			<point x="421" y="-3"/>
		</contour>
		<contour>
			<point x="298" y="721" type="curve" smooth="yes"/>
			<point x="299" y="702" type="line" smooth="yes"/>
			<point x="264" y="702"/>
			<point x="260" y="652"/>
			<point x="260" y="587" type="curve" smooth="yes"/>
			<point x="260" y="456"/>
			<point x="263" y="441"/>
			<point x="304" y="420" type="curve" smooth="yes"/>
			<point x="299" y="401" type="line"/>
			<point x="299" y="401"/>
			<point x="94" y="439"/>
			<point x="94" y="582" type="curve" smooth="yes"/>
			<point x="94" y="645"/>
			<point x="168" y="721"/>
		</contour>
		<contour>
			<point x="294" y="-3" type="line"/>
			<point x="132" y="13"/>
			<point x="45" y="117"/>
			<point x="45" y="205" type="curve" smooth="yes"/>
			<point x="45" y="330"/>
			<point x="187" y="381"/>
			<point x="240" y="381" type="curve" smooth="yes"/>
			<point x="256" y="381"/>
			<point x="273" y="378"/>
			<point x="273" y="378" type="curve"/>
			<point x="248" y="344"/>
			<point x="247" y="315"/>
			<point x="247" y="104" type="curve" smooth="yes"/>
			<point x="247" y="25"/>
			<point x="272" y="23"/>
			<point x="295" y="18" type="curve" smooth="yes"/>
		</contour>
		<contour>
			<point x="337" y="719" type="line" smooth="yes"/>
			<point x="374" y="719"/>
			<point x="405" y="716"/>
			<point x="430" y="708" type="curve" smooth="yes"/>
			<point x="517" y="681"/>
			<point x="540" y="602"/>
			<point x="540" y="571" type="curve" smooth="yes"/>
			<point x="540" y="450"/>
			<point x="424" y="426"/>
			<point x="381" y="426" type="curve" smooth="yes"/>
			<point x="368" y="426"/>
			<point x="359" y="426"/>
			<point x="357" y="429" type="curve"/>
			<point x="360" y="439"/>
			<point x="371" y="471"/>
			<point x="371" y="499" type="curve" smooth="yes"/>
			<point x="371" y="565"/>
			<point x="370" y="610"/>
			<point x="368" y="641" type="curve" smooth="yes"/>
			<point x="365" y="683"/>
			<point x="356" y="696"/>
			<point x="337" y="700" type="curve" smooth="yes"/>
		</contour>
	</outline>
</glyph>
<glyph name="five.tnum" format="2">
	<advance width="640"/>
	<outline>
		<contour>
			<point x="148" y="289" type="curve" smooth="yes"/>
			<point x="206" y="289"/>
			<point x="256" y="239"/>
			<point x="256" y="181" type="curve" smooth="yes"/>
			<point x="256" y="124"/>
			<point x="205" y="98"/>
			<point x="181" y="89" type="curve"/>
			<point x="181" y="89"/>
			<point x="179" y="87"/>
			<point x="179" y="86" type="curve" smooth="yes"/>
			<point x="179" y="76"/>
			<point x="187" y="49"/>
			<point x="211" y="33" type="curve" smooth="yes"/>
			<point x="227" y="22"/>
			<point x="252" y="17"/>
			<point x="285" y="17" type="curve" smooth="yes"/>
			<point x="286" y="-1" type="line"/>
			<point x="286" y="-1"/>
			<point x="253" y="-3"/>
			<point x="240" y="-3" type="curve" smooth="yes"/>
			<point x="137" y="-3"/>
			<point x="40" y="66"/>
			<point x="40" y="169" type="curve" smooth="yes"/>
			<point x="40" y="232"/>
			<point x="85" y="289"/>
		</contour>
		<contour>
			<point x="229" y="391" type="curve"/>
			<point x="252" y="404"/>
			<point x="294" y="427"/>
			<point x="371" y="427" type="curve" smooth="yes"/>
			<point x="490" y="427"/>
			<point x="599" y="337"/>
			<point x="599" y="215" type="curve" smooth="yes"/>
			<point x="599" y="89"/>
			<point x="477" y="6"/>
			<point x="331" y="-3" type="curve" smooth="yes"/>
			<point x="330" y="15" type="line"/>
			<point x="393" y="25"/>
			<point x="397" y="63"/>
			<point x="397" y="253" type="curve" smooth="yes"/>
			<point x="397" y="343"/>
			<point x="395" y="403"/>
			<point x="326" y="403" type="curve" smooth="yes"/>
			<point x="288" y="403"/>
			<point x="245" y="380"/>
			<point x="233" y="372" type="curve"/>
			<point x="229" y="372"/>
			<point x="228" y="378"/>
			<point x="228" y="383" type="curve" smooth="yes"/>
			<point x="228" y="388"/>
			<point x="229" y="391"/>
		</contour>
		<contour>
			<point x="293" y="673" type="curve"/>
			<point x="310" y="627"/>
			<point x="340" y="595"/>
			<point x="373" y="595" type="curve" smooth="yes"/>
			<point x="386" y="595"/>
			<point x="404" y="597"/>
			<point x="404" y="608" type="curve" smooth="yes"/>
			<point x="404" y="617"/>
			<point x="369" y="630"/>
			<point x="369" y="663" type="curve" smooth="yes"/>
			<point x="369" y="697"/>
			<point x="393" y="724"/>
			<point x="431" y="724" type="curve" smooth="yes"/>
			<point x="476" y="724"/>
			<point x="513" y="687"/>
			<point x="513" y="642" type="curve" smooth="yes"/>
			<point x="513" y="589"/>
			<point x="470" y="546"/>
			<point x="417" y="546" type="curve" smooth="yes"/>
			<point x="347" y="546"/>
			<point x="293" y="615"/>
			<point x="284" y="654" type="curve"/>
			<point x="284" y="662"/>
			<point x="293" y="673"/>
		</contour>
		<contour>
			<point x="184" y="684" type="curve" smooth="yes"/>
			<point x="244" y="684"/>
			<point x="256" y="718"/>
			<point x="266" y="718" type="curve" smooth="yes"/>
			<point x="272" y="718"/>
			<point x="275" y="714"/>
			<point x="275" y="714" type="curve" smooth="yes"/>
			<point x="275" y="695"/>
			<point x="226" y="516"/>
			<point x="195" y="360" type="curve"/>
			<point x="176" y="360" type="line"/>
			<point x="147" y="484"/>
			<point x="93" y="693"/>
			<point x="93" y="713" type="curve" smooth="yes"/>
			<point x="93" y="713"/>
			<point x="95" y="717"/>
			<point x="101" y="717" type="curve" smooth="yes"/>
			<point x="111" y="717"/>
			<point x="124" y="684"/>
		</contour>
	</outline>
</glyph>
<glyph name="four.tnum" format="2">
  <advance width="640"/>
  <outline>
    <contour>
      <point x="266" y="372" type="line"/>
      <point x="266" y="181" type="line"/>
      <point x="25" y="181" type="line"/>
      <point x="126" y="372" type="line"/>
    </contour>
    <contour>
      <point x="147" y="415" type="line"/>
      <point x="267" y="643" type="line"/>
      <point x="270" y="642" type="line"/>
      <point x="273" y="615" type="line"/>
      <point x="168" y="415" type="line"/>
    </contour>
    <contour>
      <point x="299" y="725" type="line"/>
      <point x="504" y="725" type="line"/>
      <point x="504" y="372" type="line"/>
      <point x="586" y="372" type="line"/>
      <point x="586" y="454" type="line"/>
      <point x="608" y="454" type="line"/>
      <point x="608" y="181" type="line"/>
      <point x="504" y="181" type="line"/>
      <point x="504" y="23" type="line"/>
      <point x="572" y="23" type="line"/>
      <point x="572" y="0" type="line"/>
      <point x="215" y="0" type="line"/>
      <point x="215" y="23" type="line"/>
      <point x="299" y="23" type="line"/>
    </contour>
  </outline>
</glyph>
<glyph name="nine.tnum" format="2">
  <advance width="640"/>
  <outline>
    <contour>
      <point x="287" y="723" type="curve" smooth="yes"/>
      <point x="288" y="707" type="line" smooth="yes"/>
      <point x="253" y="699"/>
      <point x="238" y="669"/>
      <point x="238" y="585" type="curve" smooth="yes"/>
      <point x="238" y="371"/>
      <point x="244" y="358"/>
      <point x="273" y="358" type="curve" smooth="yes"/>
      <point x="287" y="358"/>
      <point x="311" y="373"/>
      <point x="311" y="373" type="curve" smooth="yes"/>
      <point x="318" y="357" type="line" smooth="yes"/>
      <point x="318" y="357"/>
      <point x="281" y="331"/>
      <point x="234" y="331" type="curve" smooth="yes"/>
      <point x="128" y="331"/>
      <point x="48" y="421"/>
      <point x="48" y="511" type="curve" smooth="yes"/>
      <point x="48" y="633"/>
      <point x="144" y="723"/>
    </contour>
    <contour>
      <point x="187" y="217" type="curve" smooth="yes"/>
      <point x="231" y="217"/>
      <point x="267" y="181"/>
      <point x="267" y="135" type="curve" smooth="yes"/>
      <point x="267" y="92"/>
      <point x="242" y="71"/>
      <point x="224" y="64" type="curve"/>
      <point x="224" y="64"/>
      <point x="222" y="63"/>
      <point x="222" y="60" type="curve" smooth="yes"/>
      <point x="222" y="52"/>
      <point x="226" y="40"/>
      <point x="243" y="26" type="curve" smooth="yes"/>
      <point x="257" y="15"/>
      <point x="282" y="14"/>
      <point x="282" y="14" type="curve" smooth="yes"/>
      <point x="280" y="-4" type="line" smooth="yes"/>
      <point x="136" y="-4"/>
      <point x="96" y="76"/>
      <point x="96" y="129" type="curve" smooth="yes"/>
      <point x="96" y="177"/>
      <point x="139" y="217"/>
    </contour>
    <contour>
      <point x="585" y="384" type="curve" smooth="yes"/>
      <point x="585" y="129"/>
      <point x="378" y="-3"/>
      <point x="318" y="-3" type="curve"/>
      <point x="315" y="15" type="line"/>
      <point x="372" y="29"/>
      <point x="382" y="55"/>
      <point x="382" y="385" type="curve" smooth="yes"/>
      <point x="382" y="614"/>
      <point x="380" y="689"/>
      <point x="336" y="701" type="curve"/>
      <point x="338" y="721" type="line" smooth="yes"/>
      <point x="489" y="721"/>
      <point x="585" y="554"/>
    </contour>
  </outline>
</glyph>
<glyph name="one.tnum" format="2">
	<advance width="640"/>
	<outline>
		<contour>
			<point x="181" y="645" type="line"/>
			<point x="185" y="642" type="line"/>
			<point x="185" y="606" type="line"/>
			<point x="130" y="506" type="line"/>
			<point x="111" y="517" type="line"/>
		</contour>
		<contour>
			<point x="231" y="725" type="line"/>
			<point x="430" y="725" type="line"/>
			<point x="430" y="23" type="line"/>
			<point x="515" y="23" type="line"/>
			<point x="515" y="0" type="line"/>
			<point x="145" y="0" type="line"/>
			<point x="145" y="23" type="line"/>
			<point x="231" y="23" type="line"/>
		</contour>
	</outline>
</glyph>
<glyph name="seven.tnum" format="2">
  <advance width="640"/>
  <outline>
    <contour>
      <point x="478" y="472" type="curve"/>
      <point x="414" y="338"/>
      <point x="345" y="166"/>
      <point x="345" y="104" type="curve" smooth="yes"/>
      <point x="345" y="52"/>
      <point x="366" y="20"/>
      <point x="446" y="20" type="curve" smooth="yes"/>
      <point x="446" y="20"/>
      <point x="446" y="7"/>
      <point x="446" y="0" type="curve"/>
      <point x="70" y="0" type="line"/>
      <point x="70" y="20" type="line" smooth="yes"/>
      <point x="254" y="20"/>
      <point x="344" y="263"/>
      <point x="456" y="479" type="curve" smooth="yes"/>
      <point x="456" y="479"/>
      <point x="469" y="475"/>
    </contour>
    <contour>
      <point x="79" y="722" type="line"/>
      <point x="609" y="722" type="line"/>
      <point x="509" y="528" type="line"/>
      <point x="99" y="528" type="line"/>
      <point x="99" y="472" type="line"/>
      <point x="79" y="472" type="line"/>
    </contour>
  </outline>
</glyph>
<glyph name="six.tnum" format="2">
	<advance width="640"/>
	<outline>
		<contour>
			<point x="353" y="717" type="line"/>
			<point x="353" y="717"/>
			<point x="368" y="720"/>
			<point x="379" y="720" type="curve" smooth="yes"/>
			<point x="461" y="720"/>
			<point x="536" y="663"/>
			<point x="536" y="593" type="curve" smooth="yes"/>
			<point x="536" y="537"/>
			<point x="499" y="497"/>
			<point x="447" y="497" type="curve" smooth="yes"/>
			<point x="398" y="497"/>
			<point x="359" y="540"/>
			<point x="359" y="585" type="curve" smooth="yes"/>
			<point x="359" y="636"/>
			<point x="407" y="657"/>
			<point x="407" y="657" type="curve"/>
			<point x="407" y="696"/>
			<point x="354" y="703"/>
			<point x="354" y="703" type="curve"/>
		</contour>
		<contour>
			<point x="306" y="-3" type="curve" smooth="yes"/>
			<point x="149" y="8"/>
			<point x="55" y="163"/>
			<point x="55" y="347" type="curve" smooth="yes"/>
			<point x="55" y="496"/>
			<point x="166" y="693"/>
			<point x="317" y="720" type="curve" smooth="yes"/>
			<point x="319" y="704" type="line" smooth="yes"/>
			<point x="262" y="685"/>
			<point x="261" y="601"/>
			<point x="261" y="552" type="curve" smooth="yes"/>
			<point x="261" y="276"/>
			<point x="261" y="129"/>
			<point x="265" y="91" type="curve" smooth="yes"/>
			<point x="270" y="48"/>
			<point x="286" y="20"/>
			<point x="310" y="14" type="curve"/>
			<point x="310" y="3"/>
			<point x="306" y="-3"/>
		</contour>
		<contour>
			<point x="331" y="359" type="line" smooth="yes"/>
			<point x="349" y="371"/>
			<point x="383" y="387"/>
			<point x="419" y="387" type="curve" smooth="yes"/>
			<point x="521" y="387"/>
			<point x="597" y="301"/>
			<point x="597" y="199" type="curve" smooth="yes"/>
			<point x="597" y="76"/>
			<point x="495" y="-3"/>
			<point x="356" y="-3" type="curve" smooth="yes"/>
			<point x="354" y="13" type="line" smooth="yes"/>
			<point x="405" y="19"/>
			<point x="405" y="69"/>
			<point x="405" y="197" type="curve" smooth="yes"/>
			<point x="405" y="335"/>
			<point x="404" y="359"/>
			<point x="372" y="359" type="curve" smooth="yes"/>
			<point x="357" y="359"/>
			<point x="336" y="347"/>
			<point x="336" y="347" type="curve"/>
		</contour>
	</outline>
</glyph>
<glyph name="three.tnum" format="2">
	<advance width="640"/>
	<outline>
		<contour>
			<point x="148" y="293" type="curve" smooth="yes"/>
			<point x="206" y="293"/>
			<point x="252" y="243"/>
			<point x="252" y="185" type="curve" smooth="yes"/>
			<point x="252" y="128"/>
			<point x="188" y="93"/>
			<point x="176" y="93" type="curve"/>
			<point x="176" y="93"/>
			<point x="174" y="90"/>
			<point x="174" y="85" type="curve"/>
			<point x="174" y="65"/>
			<point x="196" y="19"/>
			<point x="273" y="19" type="curve"/>
			<point x="273" y="3" type="line"/>
			<point x="273" y="3"/>
			<point x="253" y="0"/>
			<point x="240" y="0" type="curve" smooth="yes"/>
			<point x="137" y="0"/>
			<point x="40" y="70"/>
			<point x="40" y="173" type="curve" smooth="yes"/>
			<point x="40" y="236"/>
			<point x="85" y="293"/>
		</contour>
		<contour>
			<point x="340" y="389" type="line"/>
			<point x="340" y="389"/>
			<point x="372" y="394"/>
			<point x="393" y="394" type="curve" smooth="yes"/>
			<point x="499" y="394"/>
			<point x="591" y="315"/>
			<point x="591" y="209" type="curve" smooth="yes"/>
			<point x="591" y="75"/>
			<point x="459" y="-3"/>
			<point x="348" y="-3" type="curve" smooth="yes"/>
			<point x="336" y="-3"/>
			<point x="318" y="0"/>
			<point x="318" y="0" type="curve"/>
			<point x="318" y="18" type="line" smooth="yes"/>
			<point x="357" y="18"/>
			<point x="393" y="18"/>
			<point x="393" y="231" type="curve" smooth="yes"/>
			<point x="393" y="312"/>
			<point x="392" y="371"/>
			<point x="350" y="371" type="curve" smooth="yes"/>
			<point x="343" y="371"/>
			<point x="332" y="368"/>
			<point x="332" y="368" type="curve"/>
			<point x="331" y="373" type="line"/>
		</contour>
		<contour>
			<point x="376" y="493" type="line"/>
			<point x="401" y="493" type="line"/>
			<point x="276" y="341" type="line"/>
			<point x="261" y="355" type="line"/>
		</contour>
		<contour>
			<point x="98" y="718" type="line"/>
			<point x="590" y="718" type="line"/>
			<point x="432" y="524" type="line"/>
			<point x="118" y="524" type="line"/>
			<point x="118" y="466" type="line"/>
			<point x="98" y="466" type="line"/>
		</contour>
	</outline>
</glyph>
<glyph name="two.tnum" format="2">
	<advance width="640"/>
	<outline>
		<contour>
			<point x="262" y="720" type="curve" smooth="yes"/>
			<point x="263" y="702" type="line" smooth="yes"/>
			<point x="228" y="694"/>
			<point x="227" y="643"/>
			<point x="227" y="626" type="curve" smooth="yes"/>
			<point x="227" y="509"/>
			<point x="231" y="394"/>
			<point x="295" y="394" type="curve" smooth="yes"/>
			<point x="302" y="394"/>
			<point x="310" y="396"/>
			<point x="319" y="399" type="curve" smooth="yes"/>
			<point x="324" y="386" type="line" smooth="yes"/>
			<point x="289" y="374"/>
			<point x="269" y="366"/>
			<point x="227" y="366" type="curve" smooth="yes"/>
			<point x="166" y="366"/>
			<point x="51" y="397"/>
			<point x="51" y="542" type="curve" smooth="yes"/>
			<point x="51" y="595"/>
			<point x="112" y="710"/>
		</contour>
		<contour>
			<point x="310" y="720" type="line" smooth="yes"/>
			<point x="520" y="720"/>
			<point x="589" y="591"/>
			<point x="589" y="511" type="curve"/>
			<point x="589" y="379"/>
			<point x="466" y="334"/>
			<point x="345" y="235" type="curve"/>
			<point x="326" y="235" type="line"/>
			<point x="378" y="308"/>
			<point x="383" y="373"/>
			<point x="383" y="546" type="curve" smooth="yes"/>
			<point x="383" y="652"/>
			<point x="364" y="702"/>
			<point x="310" y="702" type="curve"/>
		</contour>
		<contour>
			<point x="573" y="266" type="line"/>
			<point x="573" y="0" type="line"/>
			<point x="398" y="0"/>
			<point x="222" y="0"/>
			<point x="47" y="0" type="curve"/>
			<point x="45" y="10" type="line"/>
			<point x="294" y="209" type="line"/>
			<point x="553" y="209" type="line"/>
			<point x="553" y="266" type="line"/>
		</contour>
	</outline>
</glyph>
<glyph name="zero.tnum" format="2">
  <advance width="640"/>
  <outline>
    <contour>
      <point x="594" y="353" type="curve" smooth="yes"/>
      <point x="594" y="127"/>
      <point x="433" y="0"/>
      <point x="346" y="0" type="curve"/>
      <point x="346" y="17" type="line"/>
      <point x="377" y="32"/>
      <point x="391" y="53"/>
      <point x="391" y="99" type="curve" smooth="yes"/>
      <point x="391" y="616" type="line" smooth="yes"/>
      <point x="391" y="662"/>
      <point x="382" y="688"/>
      <point x="342" y="701" type="curve"/>
      <point x="342" y="718" type="line"/>
      <point x="416" y="718"/>
      <point x="594" y="628"/>
    </contour>
    <contour>
      <point x="46" y="370" type="curve" smooth="yes"/>
      <point x="46" y="584"/>
      <point x="185" y="708"/>
      <point x="290" y="719" type="curve" smooth="yes"/>
      <point x="290" y="701" type="line"/>
      <point x="257" y="688"/>
      <point x="247" y="666"/>
      <point x="246" y="620" type="curve" smooth="yes"/>
      <point x="246" y="98" type="line" smooth="yes"/>
      <point x="247" y="52"/>
      <point x="255" y="30"/>
      <point x="295" y="17" type="curve"/>
      <point x="295" y="0" type="line"/>
      <point x="202" y="0"/>
      <point x="46" y="95"/>
    </contour>
  </outline>
</glyph>
